name rise31.4854peak64.571fall78.6902.mot
datacolumns 19
datarows 33
range 8.70163600000000 8.75497400000000
endheader
time	ground_force1_vx	ground_force1_vy	ground_force1_vz	ground_force1_px	ground_force1_py	ground_force1_pz	ground_force2_vx	ground_force2_vy	ground_force2_vz	ground_force2_px	ground_force2_py	ground_force2_pz	ground_torque1_x	ground_torque1_y	ground_torque1_z	ground_torque2_x	ground_torque2_y	ground_torque2_z	
8.70163600000000	58.00776600000000	759.95206599999995	48.36671400000000	0.31200700000000	0.00000000000000	0.10586200000000	0.00000000000000	0.00000000000000	0.00000000000000	0.00000000000000	0.00000000000000	0.00000000000000	0.00000000000000	16.44859600000000	0.00000000000000	0.00000000000000	0.00000000000000	0.00000000000000	
8.70330400000000	57.62585200000000	764.47090500000002	48.75346900000000	0.31147100000000	0.00000000000000	0.10584600000000	0.00000000000000	0.00000000000000	0.00000000000000	0.00000000000000	0.00000000000000	0.00000000000000	0.00000000000000	16.66997100000000	0.00000000000000	0.00000000000000	0.00000000000000	0.00000000000000	
8.70496700000000	57.24425800000000	768.84060899999997	49.14042800000000	0.31096600000000	0.00000000000000	0.10582900000000	0.00000000000000	0.00000000000000	0.00000000000000	0.00000000000000	0.00000000000000	0.00000000000000	0.00000000000000	16.89268100000000	0.00000000000000	0.00000000000000	0.00000000000000	0.00000000000000	
8.70663500000000	56.86288900000000	773.05545099999995	49.52699100000000	0.31048800000000	0.00000000000000	0.10581200000000	0.00000000000000	0.00000000000000	0.00000000000000	0.00000000000000	0.00000000000000	0.00000000000000	0.00000000000000	17.11631800000000	0.00000000000000	0.00000000000000	0.00000000000000	0.00000000000000	
8.70830400000000	56.48159200000000	777.10992899999997	49.91250600000000	0.31003600000000	0.00000000000000	0.10579400000000	0.00000000000000	0.00000000000000	0.00000000000000	0.00000000000000	0.00000000000000	0.00000000000000	0.00000000000000	17.34044100000000	0.00000000000000	0.00000000000000	0.00000000000000	0.00000000000000	
8.70997100000000	56.10016400000000	780.99880099999996	50.29626800000000	0.30960600000000	0.00000000000000	0.10577500000000	0.00000000000000	0.00000000000000	0.00000000000000	0.00000000000000	0.00000000000000	0.00000000000000	0.00000000000000	17.56457900000000	0.00000000000000	0.00000000000000	0.00000000000000	0.00000000000000	
8.71163100000000	55.71835500000000	784.71710499999995	50.67752600000000	0.30919500000000	0.00000000000000	0.10575600000000	0.00000000000000	0.00000000000000	0.00000000000000	0.00000000000000	0.00000000000000	0.00000000000000	0.00000000000000	17.78823400000000	0.00000000000000	0.00000000000000	0.00000000000000	0.00000000000000	
8.71329800000000	55.33586900000000	788.26018599999998	51.05549200000000	0.30880000000000	0.00000000000000	0.10573700000000	0.00000000000000	0.00000000000000	0.00000000000000	0.00000000000000	0.00000000000000	0.00000000000000	0.00000000000000	18.01088600000000	0.00000000000000	0.00000000000000	0.00000000000000	0.00000000000000	
8.71496700000000	54.95237400000000	791.62371099999996	51.42934000000000	0.30841800000000	0.00000000000000	0.10571800000000	0.00000000000000	0.00000000000000	0.00000000000000	0.00000000000000	0.00000000000000	0.00000000000000	0.00000000000000	18.23199100000000	0.00000000000000	0.00000000000000	0.00000000000000	0.00000000000000	
8.71663800000000	54.56750300000000	794.80369700000006	51.79821900000000	0.30804600000000	0.00000000000000	0.10569800000000	0.00000000000000	0.00000000000000	0.00000000000000	0.00000000000000	0.00000000000000	0.00000000000000	0.00000000000000	18.45099000000000	0.00000000000000	0.00000000000000	0.00000000000000	0.00000000000000	
8.71829800000000	54.18086300000000	797.79652599999997	52.16125400000000	0.30768100000000	0.00000000000000	0.10567900000000	0.00000000000000	0.00000000000000	0.00000000000000	0.00000000000000	0.00000000000000	0.00000000000000	0.00000000000000	18.66730900000000	0.00000000000000	0.00000000000000	0.00000000000000	0.00000000000000	
8.71996800000000	53.79203400000000	800.59896300000003	52.51755400000000	0.30732000000000	0.00000000000000	0.10566000000000	0.00000000000000	0.00000000000000	0.00000000000000	0.00000000000000	0.00000000000000	0.00000000000000	0.00000000000000	18.88036400000000	0.00000000000000	0.00000000000000	0.00000000000000	0.00000000000000	
8.72163900000000	53.40057900000000	803.20817000000000	52.86621800000000	0.30695900000000	0.00000000000000	0.10564100000000	0.00000000000000	0.00000000000000	0.00000000000000	0.00000000000000	0.00000000000000	0.00000000000000	0.00000000000000	19.08956400000000	0.00000000000000	0.00000000000000	0.00000000000000	0.00000000000000	
8.72329900000000	53.00604700000000	805.62172199999998	53.20634100000000	0.30659500000000	0.00000000000000	0.10562200000000	0.00000000000000	0.00000000000000	0.00000000000000	0.00000000000000	0.00000000000000	0.00000000000000	0.00000000000000	19.29431400000000	0.00000000000000	0.00000000000000	0.00000000000000	0.00000000000000	
8.72496800000000	52.60797800000000	807.83761500000003	53.53702000000000	0.30622600000000	0.00000000000000	0.10560400000000	0.00000000000000	0.00000000000000	0.00000000000000	0.00000000000000	0.00000000000000	0.00000000000000	0.00000000000000	19.49402100000000	0.00000000000000	0.00000000000000	0.00000000000000	0.00000000000000	
8.72663900000000	52.20590800000000	809.85427900000002	53.85736100000000	0.30584700000000	0.00000000000000	0.10558700000000	0.00000000000000	0.00000000000000	0.00000000000000	0.00000000000000	0.00000000000000	0.00000000000000	0.00000000000000	19.68809300000000	0.00000000000000	0.00000000000000	0.00000000000000	0.00000000000000	
8.72830800000000	51.79937300000000	811.67058299999997	54.16648300000000	0.30545700000000	0.00000000000000	0.10557000000000	0.00000000000000	0.00000000000000	0.00000000000000	0.00000000000000	0.00000000000000	0.00000000000000	0.00000000000000	19.87594900000000	0.00000000000000	0.00000000000000	0.00000000000000	0.00000000000000	
8.72996400000000	51.38791700000000	813.28584200000000	54.46352800000000	0.30505100000000	0.00000000000000	0.10555400000000	0.00000000000000	0.00000000000000	0.00000000000000	0.00000000000000	0.00000000000000	0.00000000000000	0.00000000000000	20.05701800000000	0.00000000000000	0.00000000000000	0.00000000000000	0.00000000000000	
8.73163300000000	50.97109200000000	814.69982100000004	54.74766100000000	0.30462600000000	0.00000000000000	0.10553900000000	0.00000000000000	0.00000000000000	0.00000000000000	0.00000000000000	0.00000000000000	0.00000000000000	0.00000000000000	20.23074300000000	0.00000000000000	0.00000000000000	0.00000000000000	0.00000000000000	
8.73330500000000	50.54846500000000	815.91273400000000	55.01807800000000	0.30418100000000	0.00000000000000	0.10552500000000	0.00000000000000	0.00000000000000	0.00000000000000	0.00000000000000	0.00000000000000	0.00000000000000	0.00000000000000	20.39658800000000	0.00000000000000	0.00000000000000	0.00000000000000	0.00000000000000	
8.73496700000000	50.11962300000000	816.92524500000002	55.27401500000000	0.30371200000000	0.00000000000000	0.10551200000000	0.00000000000000	0.00000000000000	0.00000000000000	0.00000000000000	0.00000000000000	0.00000000000000	0.00000000000000	20.55403500000000	0.00000000000000	0.00000000000000	0.00000000000000	0.00000000000000	
8.73663300000000	49.68417300000000	817.73846700000001	55.51474500000000	0.30321600000000	0.00000000000000	0.10550000000000	0.00000000000000	0.00000000000000	0.00000000000000	0.00000000000000	0.00000000000000	0.00000000000000	0.00000000000000	20.70259600000000	0.00000000000000	0.00000000000000	0.00000000000000	0.00000000000000	
8.73829900000000	49.24175000000000	818.35395600000004	55.73959000000000	0.30269000000000	0.00000000000000	0.10548900000000	0.00000000000000	0.00000000000000	0.00000000000000	0.00000000000000	0.00000000000000	0.00000000000000	0.00000000000000	20.84180800000000	0.00000000000000	0.00000000000000	0.00000000000000	0.00000000000000	
8.73997200000000	48.79202200000000	818.77370199999996	55.94792100000000	0.30213300000000	0.00000000000000	0.10548000000000	0.00000000000000	0.00000000000000	0.00000000000000	0.00000000000000	0.00000000000000	0.00000000000000	0.00000000000000	20.97124000000000	0.00000000000000	0.00000000000000	0.00000000000000	0.00000000000000	
8.74163100000000	48.33468500000000	819.00012800000002	56.13916400000000	0.30154100000000	0.00000000000000	0.10547200000000	0.00000000000000	0.00000000000000	0.00000000000000	0.00000000000000	0.00000000000000	0.00000000000000	0.00000000000000	21.09049700000000	0.00000000000000	0.00000000000000	0.00000000000000	0.00000000000000	
8.74329900000000	47.86947600000000	819.03607199999999	56.31280100000000	0.30091200000000	0.00000000000000	0.10546600000000	0.00000000000000	0.00000000000000	0.00000000000000	0.00000000000000	0.00000000000000	0.00000000000000	0.00000000000000	21.19922000000000	0.00000000000000	0.00000000000000	0.00000000000000	0.00000000000000	
8.74496500000000	47.39617000000000	818.88478199999997	56.46837700000000	0.30024400000000	0.00000000000000	0.10546200000000	0.00000000000000	0.00000000000000	0.00000000000000	0.00000000000000	0.00000000000000	0.00000000000000	0.00000000000000	21.29708800000000	0.00000000000000	0.00000000000000	0.00000000000000	0.00000000000000	
8.74663500000000	46.91458300000000	818.54989899999998	56.60550000000000	0.29953600000000	0.00000000000000	0.10545900000000	0.00000000000000	0.00000000000000	0.00000000000000	0.00000000000000	0.00000000000000	0.00000000000000	0.00000000000000	21.38382300000000	0.00000000000000	0.00000000000000	0.00000000000000	0.00000000000000	
8.74830300000000	46.42457700000000	818.03544399999998	56.72384200000000	0.29878400000000	0.00000000000000	0.10545800000000	0.00000000000000	0.00000000000000	0.00000000000000	0.00000000000000	0.00000000000000	0.00000000000000	0.00000000000000	21.45918900000000	0.00000000000000	0.00000000000000	0.00000000000000	0.00000000000000	
8.74996400000000	45.92605800000000	817.34580100000005	56.82314400000000	0.29798800000000	0.00000000000000	0.10545800000000	0.00000000000000	0.00000000000000	0.00000000000000	0.00000000000000	0.00000000000000	0.00000000000000	0.00000000000000	21.52299600000000	0.00000000000000	0.00000000000000	0.00000000000000	0.00000000000000	
8.75163300000000	45.41898200000000	816.48569999999995	56.90321800000000	0.29714600000000	0.00000000000000	0.10546100000000	0.00000000000000	0.00000000000000	0.00000000000000	0.00000000000000	0.00000000000000	0.00000000000000	0.00000000000000	21.57509700000000	0.00000000000000	0.00000000000000	0.00000000000000	0.00000000000000	
8.75330500000000	44.90335300000000	815.46019899999999	56.96394200000000	0.29625700000000	0.00000000000000	0.10546500000000	0.00000000000000	0.00000000000000	0.00000000000000	0.00000000000000	0.00000000000000	0.00000000000000	0.00000000000000	21.61539400000000	0.00000000000000	0.00000000000000	0.00000000000000	0.00000000000000	
8.75497400000000	44.37922600000000	814.27466500000003	57.00526900000000	0.29531900000000	0.00000000000000	0.10547200000000	0.00000000000000	0.00000000000000	0.00000000000000	0.00000000000000	0.00000000000000	0.00000000000000	0.00000000000000	21.64383700000000	0.00000000000000	0.00000000000000	0.00000000000000	0.00000000000000	
